<!DOCTYPE svg PUBLIC "-//W3C//DTD SVG 1.1//EN" "http://www.w3.org/Graphics/SVG/1.1/DTD/svg11.dtd">
<!-- Uploaded to: SVG Repo, www.svgrepo.com, Transformed by: SVG Repo Mixer Tools -->
<svg width="800px" height="800px" viewBox="0 0 24 24" fill="none" xmlns="http://www.w3.org/2000/svg">
<g id="SVGRepo_bgCarrier" stroke-width="0"/>
<g id="SVGRepo_tracerCarrier" stroke-linecap="round" stroke-linejoin="round"/>
<g id="SVGRepo_iconCarrier"> <path fill-rule="evenodd" clip-rule="evenodd" d="M22 17C22 19.7614 19.7614 22 17 22C14.2386 22 12 19.7614 12 17C12 14.2386 14.2386 12 17 12C19.7614 12 22 14.2386 22 17ZM19.5303 16.5303L17.0303 19.0303C16.7374 19.3232 16.2621 19.3227 15.9692 19.0298L14.9697 18.0303C14.6768 17.7374 14.6768 17.2626 14.9697 16.9697C15.2626 16.6768 15.7374 16.6768 16.0303 16.9697L16.5 17.4393L18.4697 15.4697C18.7626 15.1768 19.2374 15.1768 19.5303 15.4697C19.8232 15.7626 19.8232 16.2374 19.5303 16.5303Z" fill="#004E98"/> <path d="M10 2C7.23858 2 5 4.23858 5 7C5 9.76142 7.23858 12 10 12C12.7614 12 15 9.76142 15 7C15 4.23858 12.7614 2 10 2Z" fill="#FF6700"/> <path d="M3.54545 22C2.69192 22 2 21.3081 2 20.4545C2 16.8898 4.8898 14 8.45455 14H9.54545C9.91548 14 10.2782 14.0311 10.6312 14.0909C10.2259 14.9769 10 15.9621 10 17C10 18.9587 10.8045 20.7295 12.101 22H3.54545Z" fill="#FF6700"/> </g>
</svg>